<svg width="146" height="44" viewBox="0 0 146 44" fill="none" xmlns="http://www.w3.org/2000/svg">
<path d="M57.4161 31.2333C56.839 31.8159 56.1328 32.1072 55.2975 32.1072C54.4621 32.1072 53.7559 31.8159 53.1788 31.2333C52.6018 30.6508 52.3133 29.9446 52.3133 29.1147C52.3133 28.2794 52.6018 27.5732 53.1788 26.9961C53.7559 26.4136 54.4621 26.1223 55.2975 26.1223C56.1328 26.1223 56.839 26.4136 57.4161 26.9961C57.9986 27.5732 58.2899 28.2794 58.2899 29.1147C58.2899 29.9446 57.9986 30.6508 57.4161 31.2333ZM53.7064 30.714C54.1351 31.1427 54.6654 31.357 55.2975 31.357C55.9295 31.357 56.4571 31.1427 56.8802 30.714C57.3089 30.2798 57.5232 29.7467 57.5232 29.1147C57.5232 28.4772 57.3089 27.9441 56.8802 27.5155C56.4571 27.0813 55.9295 26.8642 55.2975 26.8642C54.6654 26.8642 54.1351 27.0813 53.7064 27.5155C53.2833 27.9441 53.0717 28.4772 53.0717 29.1147C53.0717 29.7467 53.2833 30.2798 53.7064 30.714ZM62.7976 26.2294H63.5642V32H62.946L59.9782 27.6886V32H59.2116V26.2294H59.8299L62.7976 30.5326V26.2294ZM70.1817 26.9549H67.6262V28.8262H70.0745V29.5516H67.6262V32H66.8595V26.2294H70.1817V26.9549ZM74.6529 32L74.183 30.7057H71.5862L71.1163 32H70.3002L72.4518 26.2294H73.3174L75.469 32H74.6529ZM71.85 29.9885H73.9192L72.8805 27.1445L71.85 29.9885ZM78.6526 32.1072C77.7787 32.1072 77.056 31.8186 76.4845 31.2416C75.9184 30.6645 75.6354 29.9556 75.6354 29.1147C75.6354 28.2739 75.9184 27.5649 76.4845 26.9879C77.056 26.4108 77.7787 26.1223 78.6526 26.1223C79.1802 26.1223 79.6638 26.2487 80.1035 26.5015C80.5486 26.7543 80.8948 27.095 81.1422 27.5237L80.4744 27.9111C80.3095 27.5924 80.0622 27.3396 79.7325 27.1527C79.4082 26.9604 79.0483 26.8642 78.6526 26.8642C77.9876 26.8642 77.4435 27.0785 77.0203 27.5072C76.6026 27.9359 76.3938 28.4717 76.3938 29.1147C76.3938 29.7522 76.6026 30.2853 77.0203 30.714C77.4435 31.1427 77.9876 31.357 78.6526 31.357C79.0483 31.357 79.4082 31.2636 79.7325 31.0767C80.0622 30.8844 80.3095 30.6316 80.4744 30.3183L81.1422 30.6975C80.9003 31.1262 80.5569 31.4697 80.1117 31.728C79.6665 31.9808 79.1802 32.1072 78.6526 32.1072ZM82.7771 31.2746H85.4563V32H82.0104V26.2294H85.4151V26.9549H82.7771V28.7273H85.209V29.4445H82.7771V31.2746ZM89.6793 29.0076C89.9431 29.134 90.1519 29.3153 90.3058 29.5516C90.4652 29.788 90.5449 30.06 90.5449 30.3678C90.5449 30.8294 90.3828 31.2169 90.0585 31.5301C89.7343 31.8434 89.3386 32 88.8714 32H86.3818V26.2294H88.6901C89.1407 26.2294 89.5227 26.3806 89.8359 26.6828C90.1492 26.9851 90.3058 27.3588 90.3058 27.804C90.3058 28.3151 90.097 28.7163 89.6793 29.0076ZM88.6901 26.9466H87.1485V28.7108H88.6901C88.9319 28.7108 89.1352 28.6256 89.3001 28.4552C89.465 28.2849 89.5474 28.076 89.5474 27.8287C89.5474 27.5869 89.4622 27.3808 89.2918 27.2104C89.127 27.0346 88.9264 26.9466 88.6901 26.9466ZM88.8714 31.2828C89.1297 31.2828 89.3468 31.1921 89.5227 31.0108C89.6985 30.8294 89.7865 30.6068 89.7865 30.343C89.7865 30.0847 89.6958 29.8649 89.5144 29.6835C89.3386 29.5022 89.1242 29.4115 88.8714 29.4115H87.1485V31.2828H88.8714ZM96.2514 31.2333C95.6744 31.8159 94.9682 32.1072 94.1328 32.1072C93.2974 32.1072 92.5912 31.8159 92.0142 31.2333C91.4371 30.6508 91.1486 29.9446 91.1486 29.1147C91.1486 28.2794 91.4371 27.5732 92.0142 26.9961C92.5912 26.4136 93.2974 26.1223 94.1328 26.1223C94.9682 26.1223 95.6744 26.4136 96.2514 26.9961C96.834 27.5732 97.1252 28.2794 97.1252 29.1147C97.1252 29.9446 96.834 30.6508 96.2514 31.2333ZM92.5418 30.714C92.9704 31.1427 93.5008 31.357 94.1328 31.357C94.7648 31.357 95.2924 31.1427 95.7156 30.714C96.1442 30.2798 96.3586 29.7467 96.3586 29.1147C96.3586 28.4772 96.1442 27.9441 95.7156 27.5155C95.2924 27.0813 94.7648 26.8642 94.1328 26.8642C93.5008 26.8642 92.9704 27.0813 92.5418 27.5155C92.1186 27.9441 91.907 28.4772 91.907 29.1147C91.907 29.7467 92.1186 30.2798 92.5418 30.714ZM102.845 31.2333C102.268 31.8159 101.561 32.1072 100.726 32.1072C99.8908 32.1072 99.1845 31.8159 98.6075 31.2333C98.0304 30.6508 97.7419 29.9446 97.7419 29.1147C97.7419 28.2794 98.0304 27.5732 98.6075 26.9961C99.1845 26.4136 99.8908 26.1223 100.726 26.1223C101.561 26.1223 102.268 26.4136 102.845 26.9961C103.427 27.5732 103.719 28.2794 103.719 29.1147C103.719 29.9446 103.427 30.6508 102.845 31.2333ZM99.1351 30.714C99.5638 31.1427 100.094 31.357 100.726 31.357C101.358 31.357 101.886 31.1427 102.309 30.714C102.738 30.2798 102.952 29.7467 102.952 29.1147C102.952 28.4772 102.738 27.9441 102.309 27.5155C101.886 27.0813 101.358 26.8642 100.726 26.8642C100.094 26.8642 99.5638 27.0813 99.1351 27.5155C98.7119 27.9441 98.5003 28.4772 98.5003 29.1147C98.5003 29.7467 98.7119 30.2798 99.1351 30.714ZM108.836 32H107.896L105.407 29.2301V32H104.64V26.2294H105.407V28.8344L107.814 26.2294H108.754L106.207 29.0323L108.836 32Z" fill="black"/>
<rect x="0.821657" y="0.821657" width="144.357" height="42.3567" rx="21.1783" stroke="black" stroke-width="1.64331"/>
<path d="M58.5425 13.6347H54.9677V15.4558H58.475V17.5332H54.9677V21H52.8094V11.5573H58.5425V13.6347ZM67.8035 19.7724C66.8502 20.7167 65.6901 21.1889 64.3232 21.1889C62.9562 21.1889 61.7961 20.7167 60.8429 19.7724C59.8896 18.8282 59.413 17.6636 59.413 16.2786C59.413 14.8937 59.8896 13.7291 60.8429 12.7848C61.7961 11.8406 62.9562 11.3684 64.3232 11.3684C65.6901 11.3684 66.8502 11.8406 67.8035 12.7848C68.7568 13.7291 69.2334 14.8937 69.2334 16.2786C69.2334 17.6636 68.7568 18.8282 67.8035 19.7724ZM62.3537 18.3021C62.8843 18.8237 63.5408 19.0845 64.3232 19.0845C65.1056 19.0845 65.7576 18.8237 66.2792 18.3021C66.8098 17.7805 67.0751 17.106 67.0751 16.2786C67.0751 15.4513 66.8098 14.7768 66.2792 14.2552C65.7576 13.7336 65.1056 13.4728 64.3232 13.4728C63.5408 13.4728 62.8843 13.7336 62.3537 14.2552C61.8321 14.7768 61.5713 15.4513 61.5713 16.2786C61.5713 17.106 61.8321 17.7805 62.3537 18.3021ZM72.607 18.9226H75.9794V21H70.4486V11.5573H72.607V18.9226ZM79.0883 18.9226H82.4607V21H76.93V11.5573H79.0883V18.9226ZM90.857 19.7724C89.9038 20.7167 88.7437 21.1889 87.3767 21.1889C86.0098 21.1889 84.8497 20.7167 83.8964 19.7724C82.9431 18.8282 82.4665 17.6636 82.4665 16.2786C82.4665 14.8937 82.9431 13.7291 83.8964 12.7848C84.8497 11.8406 86.0098 11.3684 87.3767 11.3684C88.7437 11.3684 89.9038 11.8406 90.857 12.7848C91.8103 13.7291 92.2869 14.8937 92.2869 16.2786C92.2869 17.6636 91.8103 18.8282 90.857 19.7724ZM85.4072 18.3021C85.9378 18.8237 86.5943 19.0845 87.3767 19.0845C88.1591 19.0845 88.8111 18.8237 89.3327 18.3021C89.8633 17.7805 90.1286 17.106 90.1286 16.2786C90.1286 15.4513 89.8633 14.7768 89.3327 14.2552C88.8111 13.7336 88.1591 13.4728 87.3767 13.4728C86.5943 13.4728 85.9378 13.7336 85.4072 14.2552C84.8856 14.7768 84.6248 15.4513 84.6248 16.2786C84.6248 17.106 84.8856 17.7805 85.4072 18.3021ZM95.0228 21L92.4193 11.5573H94.6856L96.3178 18.1672L98.1389 11.5573H99.8926L101.714 18.1672L103.346 11.5573H105.612L103.009 21H100.554L99.0157 15.4288L97.4779 21H95.0228ZM116.121 20.312C115.438 20.8966 114.565 21.1889 113.504 21.1889C112.443 21.1889 111.571 20.8966 110.887 20.312C110.204 19.7275 109.862 18.9406 109.862 17.9513V11.5573H112.02V17.7625C112.02 18.6438 112.515 19.0845 113.504 19.0845C114.493 19.0845 114.988 18.6438 114.988 17.7625V11.5573H117.146V17.9513C117.146 18.9406 116.805 19.7275 116.121 20.312ZM122.008 21.1889C121.046 21.1889 120.241 20.982 119.593 20.5683C118.955 20.1457 118.501 19.5746 118.231 18.8552L120.092 17.776C120.47 18.6483 121.131 19.0845 122.075 19.0845C122.93 19.0845 123.357 18.8282 123.357 18.3156C123.357 18.0368 123.218 17.8209 122.939 17.6681C122.669 17.5062 122.156 17.3218 121.401 17.115C121.005 17.0071 120.659 16.8857 120.362 16.7508C120.065 16.6159 119.773 16.4405 119.485 16.2247C119.207 15.9998 118.991 15.7211 118.838 15.3883C118.694 15.0556 118.622 14.6734 118.622 14.2417C118.622 13.3694 118.932 12.6724 119.553 12.1508C120.182 11.6292 120.929 11.3684 121.792 11.3684C122.566 11.3684 123.249 11.5528 123.843 11.9215C124.436 12.2812 124.904 12.8073 125.245 13.4998L123.424 14.5655C123.253 14.2057 123.042 13.9359 122.79 13.7561C122.539 13.5672 122.206 13.4728 121.792 13.4728C121.468 13.4728 121.217 13.5447 121.037 13.6886C120.866 13.8235 120.78 13.9899 120.78 14.1877C120.78 14.4216 120.888 14.6239 121.104 14.7948C121.329 14.9656 121.788 15.1545 122.48 15.3613C122.858 15.4783 123.15 15.5727 123.357 15.6446C123.564 15.7166 123.825 15.838 124.139 16.0088C124.463 16.1707 124.706 16.3461 124.868 16.5349C125.039 16.7148 125.187 16.9576 125.313 17.2634C125.448 17.5601 125.515 17.9019 125.515 18.2886C125.515 19.1879 125.191 19.8983 124.544 20.4199C123.896 20.9326 123.051 21.1889 122.008 21.1889Z" fill="black"/>
<g clip-path="url(#clip0_2783_5407)">
<path d="M46 22C46 14.8203 40.1797 9 33 9C25.8203 9 20 14.8203 20 22C20 28.4886 24.7539 33.8669 30.9688 34.8421V25.7578H27.668V22H30.9688V19.1359C30.9688 15.8778 32.9096 14.0781 35.8791 14.0781C37.3014 14.0781 38.7891 14.332 38.7891 14.332V17.5312H37.1498C35.5349 17.5312 35.0312 18.5334 35.0312 19.5615V22H38.6367L38.0604 25.7578H35.0312V34.8421C41.2461 33.8669 46 28.4887 46 22Z" fill="#1877F2"/>
<path d="M38.0604 25.7578L38.6367 22H35.0312V19.5615C35.0312 18.5333 35.5349 17.5312 37.1498 17.5312H38.7891V14.332C38.7891 14.332 37.3014 14.0781 35.879 14.0781C32.9096 14.0781 30.9688 15.8778 30.9688 19.1359V22H27.668V25.7578H30.9688V34.8421C31.6407 34.9474 32.3198 35.0002 33 35C33.6802 35.0002 34.3593 34.9474 35.0312 34.8421V25.7578H38.0604Z" fill="white"/>
</g>
<defs>
<clipPath id="clip0_2783_5407">
<rect width="26" height="26" fill="white" transform="translate(20 9)"/>
</clipPath>
</defs>
</svg>
