<svg width="146" height="44" viewBox="0 0 146 44" fill="none" xmlns="http://www.w3.org/2000/svg">
<path d="M57.4161 31.2333C56.839 31.8159 56.1328 32.1072 55.2975 32.1072C54.4621 32.1072 53.7559 31.8159 53.1788 31.2333C52.6018 30.6508 52.3133 29.9446 52.3133 29.1147C52.3133 28.2794 52.6018 27.5732 53.1788 26.9961C53.7559 26.4136 54.4621 26.1223 55.2975 26.1223C56.1328 26.1223 56.839 26.4136 57.4161 26.9961C57.9986 27.5732 58.2899 28.2794 58.2899 29.1147C58.2899 29.9446 57.9986 30.6508 57.4161 31.2333ZM53.7064 30.714C54.1351 31.1427 54.6654 31.357 55.2975 31.357C55.9295 31.357 56.4571 31.1427 56.8802 30.714C57.3089 30.2798 57.5232 29.7467 57.5232 29.1147C57.5232 28.4772 57.3089 27.9441 56.8802 27.5155C56.4571 27.0813 55.9295 26.8642 55.2975 26.8642C54.6654 26.8642 54.1351 27.0813 53.7064 27.5155C53.2833 27.9441 53.0717 28.4772 53.0717 29.1147C53.0717 29.7467 53.2833 30.2798 53.7064 30.714ZM62.7976 26.2294H63.5642V32H62.946L59.9782 27.6886V32H59.2116V26.2294H59.8299L62.7976 30.5326V26.2294ZM66.8595 26.2294H67.6262V32H66.8595V26.2294ZM72.4501 26.2294H73.2167V32H72.5984L69.6307 27.6886V32H68.8641V26.2294H69.4823L72.4501 30.5326V26.2294ZM76.2256 32.1072C75.687 32.1072 75.2254 31.9808 74.8407 31.728C74.4614 31.4752 74.1949 31.1289 74.041 30.6893L74.7005 30.3101C74.9258 31.008 75.4397 31.357 76.2421 31.357C76.6378 31.357 76.94 31.2773 77.1489 31.1179C77.3577 30.9531 77.4621 30.736 77.4621 30.4667C77.4621 30.1919 77.3577 29.9858 77.1489 29.8484C76.94 29.711 76.5911 29.5654 76.1019 29.4115C75.8601 29.3346 75.676 29.2741 75.5496 29.2301C75.4232 29.1807 75.2638 29.1092 75.0715 29.0158C74.8846 28.9169 74.7445 28.8179 74.651 28.719C74.5576 28.6146 74.4724 28.48 74.3955 28.3151C74.324 28.1502 74.2883 27.9634 74.2883 27.7545C74.2883 27.2544 74.4642 26.8587 74.8159 26.5674C75.1676 26.2707 75.5963 26.1223 76.1019 26.1223C76.5581 26.1223 76.9538 26.2377 77.289 26.4685C77.6298 26.6993 77.8853 27.0043 78.0557 27.3836L77.4127 27.7545C77.1654 27.161 76.7284 26.8642 76.1019 26.8642C75.7887 26.8642 75.5359 26.9411 75.3435 27.095C75.1512 27.2489 75.055 27.4577 75.055 27.7215C75.055 27.9743 75.1457 28.1667 75.327 28.2986C75.5084 28.4305 75.8216 28.5679 76.2668 28.7108C76.4262 28.7602 76.5388 28.796 76.6048 28.8179C76.6707 28.8399 76.7724 28.8784 76.9098 28.9334C77.0527 28.9883 77.1571 29.0323 77.2231 29.0653C77.289 29.0982 77.3769 29.1449 77.4869 29.2054C77.6023 29.2659 77.6875 29.3236 77.7424 29.3785C77.7974 29.4335 77.8606 29.5022 77.932 29.5846C78.009 29.6616 78.0639 29.7412 78.0969 29.8237C78.1299 29.9061 78.1573 30.0023 78.1793 30.1122C78.2068 30.2166 78.2205 30.3293 78.2205 30.4502C78.2205 30.9558 78.0364 31.3597 77.6682 31.662C77.3 31.9588 76.8191 32.1072 76.2256 32.1072ZM82.6122 26.2294V26.9549H80.9058V32H80.1474V26.9549H78.4492V26.2294H82.6122ZM86.7527 32L86.2828 30.7057H83.686L83.2161 32H82.4L84.5516 26.2294H85.4172L87.5688 32H86.7527ZM83.9498 29.9885H86.019L84.9803 27.1445L83.9498 29.9885ZM93.6047 29.1395V29.4857C93.6047 30.2386 93.3464 30.8651 92.8298 31.3652C92.3132 31.8599 91.629 32.1072 90.7771 32.1072C89.8978 32.1072 89.1696 31.8186 88.5925 31.2416C88.021 30.659 87.7352 29.9501 87.7352 29.1147C87.7352 28.2794 88.021 27.5732 88.5925 26.9961C89.1696 26.4136 89.8923 26.1223 90.7606 26.1223C91.2937 26.1223 91.7828 26.2514 92.228 26.5097C92.6732 26.7625 93.0166 27.0978 93.2585 27.5155L92.599 27.9029C92.4341 27.5896 92.184 27.3396 91.8488 27.1527C91.519 26.9604 91.1536 26.8642 90.7524 26.8642C90.0929 26.8642 89.5516 27.0813 89.1284 27.5155C88.7052 27.9441 88.4936 28.4772 88.4936 29.1147C88.4936 29.7522 88.7052 30.2853 89.1284 30.714C89.5571 31.1427 90.1094 31.357 90.7854 31.357C91.3624 31.357 91.8296 31.2169 92.1868 30.9366C92.544 30.6508 92.7611 30.2826 92.838 29.8319H90.7194V29.1395H93.6047ZM97.958 32L96.6638 29.7907H95.3036V32H94.5369V26.2294H96.8452C97.3398 26.2294 97.7629 26.4053 98.1147 26.757C98.4664 27.1033 98.6423 27.5237 98.6423 28.0183C98.6423 28.392 98.5296 28.7328 98.3043 29.0405C98.0844 29.3483 97.7987 29.5654 97.4469 29.6918L98.8071 32H97.958ZM95.3036 26.9466V29.0982H96.8452C97.1309 29.0982 97.3727 28.9938 97.5706 28.785C97.7739 28.5706 97.8756 28.3151 97.8756 28.0183C97.8756 27.7215 97.7739 27.4687 97.5706 27.2599C97.3727 27.0511 97.1309 26.9466 96.8452 26.9466H95.3036ZM103.377 32L102.907 30.7057H100.31L99.8403 32H99.0242L101.176 26.2294H102.041L104.193 32H103.377ZM100.574 29.9885H102.643L101.604 27.1445L100.574 29.9885ZM110.273 26.2294V32H109.515V27.4907L107.627 30.6316H107.528L105.64 27.499V32H104.874V26.2294H105.739L107.578 29.2796L109.408 26.2294H110.273Z" fill="black"/>
<rect x="0.821657" y="0.821657" width="144.357" height="42.3567" rx="21.1783" stroke="black" stroke-width="1.64331"/>
<path d="M58.5425 13.6347H54.9677V15.4558H58.475V17.5332H54.9677V21H52.8094V11.5573H58.5425V13.6347ZM67.8035 19.7724C66.8502 20.7167 65.6901 21.1889 64.3232 21.1889C62.9562 21.1889 61.7961 20.7167 60.8429 19.7724C59.8896 18.8282 59.413 17.6636 59.413 16.2786C59.413 14.8937 59.8896 13.7291 60.8429 12.7848C61.7961 11.8406 62.9562 11.3684 64.3232 11.3684C65.6901 11.3684 66.8502 11.8406 67.8035 12.7848C68.7568 13.7291 69.2334 14.8937 69.2334 16.2786C69.2334 17.6636 68.7568 18.8282 67.8035 19.7724ZM62.3537 18.3021C62.8843 18.8237 63.5408 19.0845 64.3232 19.0845C65.1056 19.0845 65.7576 18.8237 66.2792 18.3021C66.8098 17.7805 67.0751 17.106 67.0751 16.2786C67.0751 15.4513 66.8098 14.7768 66.2792 14.2552C65.7576 13.7336 65.1056 13.4728 64.3232 13.4728C63.5408 13.4728 62.8843 13.7336 62.3537 14.2552C61.8321 14.7768 61.5713 15.4513 61.5713 16.2786C61.5713 17.106 61.8321 17.7805 62.3537 18.3021ZM72.607 18.9226H75.9794V21H70.4486V11.5573H72.607V18.9226ZM79.0883 18.9226H82.4607V21H76.93V11.5573H79.0883V18.9226ZM90.857 19.7724C89.9038 20.7167 88.7437 21.1889 87.3767 21.1889C86.0098 21.1889 84.8497 20.7167 83.8964 19.7724C82.9431 18.8282 82.4665 17.6636 82.4665 16.2786C82.4665 14.8937 82.9431 13.7291 83.8964 12.7848C84.8497 11.8406 86.0098 11.3684 87.3767 11.3684C88.7437 11.3684 89.9038 11.8406 90.857 12.7848C91.8103 13.7291 92.2869 14.8937 92.2869 16.2786C92.2869 17.6636 91.8103 18.8282 90.857 19.7724ZM85.4072 18.3021C85.9378 18.8237 86.5943 19.0845 87.3767 19.0845C88.1591 19.0845 88.8111 18.8237 89.3327 18.3021C89.8633 17.7805 90.1286 17.106 90.1286 16.2786C90.1286 15.4513 89.8633 14.7768 89.3327 14.2552C88.8111 13.7336 88.1591 13.4728 87.3767 13.4728C86.5943 13.4728 85.9378 13.7336 85.4072 14.2552C84.8856 14.7768 84.6248 15.4513 84.6248 16.2786C84.6248 17.106 84.8856 17.7805 85.4072 18.3021ZM95.0228 21L92.4193 11.5573H94.6856L96.3178 18.1672L98.1389 11.5573H99.8926L101.714 18.1672L103.346 11.5573H105.612L103.009 21H100.554L99.0157 15.4288L97.4779 21H95.0228ZM116.121 20.312C115.438 20.8966 114.565 21.1889 113.504 21.1889C112.443 21.1889 111.571 20.8966 110.887 20.312C110.204 19.7275 109.862 18.9406 109.862 17.9513V11.5573H112.02V17.7625C112.02 18.6438 112.515 19.0845 113.504 19.0845C114.493 19.0845 114.988 18.6438 114.988 17.7625V11.5573H117.146V17.9513C117.146 18.9406 116.805 19.7275 116.121 20.312ZM122.008 21.1889C121.046 21.1889 120.241 20.982 119.593 20.5683C118.955 20.1457 118.501 19.5746 118.231 18.8552L120.092 17.776C120.47 18.6483 121.131 19.0845 122.075 19.0845C122.93 19.0845 123.357 18.8282 123.357 18.3156C123.357 18.0368 123.218 17.8209 122.939 17.6681C122.669 17.5062 122.156 17.3218 121.401 17.115C121.005 17.0071 120.659 16.8857 120.362 16.7508C120.065 16.6159 119.773 16.4405 119.485 16.2247C119.207 15.9998 118.991 15.7211 118.838 15.3883C118.694 15.0556 118.622 14.6734 118.622 14.2417C118.622 13.3694 118.932 12.6724 119.553 12.1508C120.182 11.6292 120.929 11.3684 121.792 11.3684C122.566 11.3684 123.249 11.5528 123.843 11.9215C124.436 12.2812 124.904 12.8073 125.245 13.4998L123.424 14.5655C123.253 14.2057 123.042 13.9359 122.79 13.7561C122.539 13.5672 122.206 13.4728 121.792 13.4728C121.468 13.4728 121.217 13.5447 121.037 13.6886C120.866 13.8235 120.78 13.9899 120.78 14.1877C120.78 14.4216 120.888 14.6239 121.104 14.7948C121.329 14.9656 121.788 15.1545 122.48 15.3613C122.858 15.4783 123.15 15.5727 123.357 15.6446C123.564 15.7166 123.825 15.838 124.139 16.0088C124.463 16.1707 124.706 16.3461 124.868 16.5349C125.039 16.7148 125.187 16.9576 125.313 17.2634C125.448 17.5601 125.515 17.9019 125.515 18.2886C125.515 19.1879 125.191 19.8983 124.544 20.4199C123.896 20.9326 123.051 21.1889 122.008 21.1889Z" fill="black"/>
<g clip-path="url(#clip0_2783_5415)">
<path d="M39.9062 9H26.0938C22.7283 9 20 11.7283 20 15.0938V28.9062C20 32.2717 22.7283 35 26.0938 35H39.9062C43.2717 35 46 32.2717 46 28.9062V15.0938C46 11.7283 43.2717 9 39.9062 9Z" fill="url(#paint0_radial_2783_5415)"/>
<path d="M39.9062 9H26.0938C22.7283 9 20 11.7283 20 15.0938V28.9062C20 32.2717 22.7283 35 26.0938 35H39.9062C43.2717 35 46 32.2717 46 28.9062V15.0938C46 11.7283 43.2717 9 39.9062 9Z" fill="url(#paint1_radial_2783_5415)"/>
<path d="M33.0009 11.8438C30.2427 11.8438 29.8965 11.8558 28.8132 11.9051C27.732 11.9547 26.9939 12.1258 26.3482 12.377C25.6801 12.6363 25.1135 12.9834 24.549 13.5481C23.984 14.1127 23.637 14.6793 23.3768 15.347C23.1249 15.993 22.9535 16.7313 22.9049 17.8121C22.8564 18.8954 22.8438 19.2418 22.8438 22.0001C22.8438 24.7584 22.8559 25.1035 22.9051 26.1868C22.9549 27.268 23.126 28.0061 23.377 28.6518C23.6365 29.3199 23.9836 29.8865 24.5483 30.451C25.1127 31.016 25.6793 31.3639 26.3468 31.6233C26.9931 31.8744 27.7312 32.0455 28.8123 32.0951C29.8956 32.1444 30.2416 32.1565 32.9997 32.1565C35.7582 32.1565 36.1033 32.1444 37.1866 32.0951C38.2678 32.0455 39.0067 31.8744 39.653 31.6233C40.3207 31.3639 40.8865 31.016 41.4508 30.451C42.0158 29.8865 42.3627 29.3199 42.623 28.6521C42.8727 28.0061 43.0441 27.2678 43.0949 26.187C43.1436 25.1038 43.1562 24.7584 43.1562 22.0001C43.1562 19.2418 43.1436 18.8956 43.0949 17.8123C43.0441 16.731 42.8727 15.9931 42.623 15.3474C42.3627 14.6793 42.0158 14.1127 41.4508 13.5481C40.8859 12.9832 40.3209 12.6361 39.6523 12.3771C39.0049 12.1258 38.2664 11.9546 37.1852 11.9051C36.1018 11.8558 35.7569 11.8438 32.9978 11.8438H33.0009ZM32.0898 13.674C32.3603 13.6736 32.662 13.674 33.0009 13.674C35.7127 13.674 36.0341 13.6838 37.105 13.7324C38.0952 13.7777 38.6327 13.9431 38.9907 14.0822C39.4647 14.2662 39.8026 14.4863 40.1578 14.8419C40.5133 15.1973 40.7333 15.5359 40.9178 16.0098C41.0569 16.3673 41.2225 16.9048 41.2676 17.895C41.3162 18.9657 41.3268 19.2873 41.3268 21.9978C41.3268 24.7083 41.3162 25.0299 41.2676 26.1005C41.2223 27.0907 41.0569 27.6282 40.9178 27.9858C40.7338 28.4598 40.5133 28.7973 40.1578 29.1525C39.8024 29.508 39.4649 29.728 38.9907 29.9121C38.6331 30.0518 38.0952 30.2168 37.105 30.2621C36.0343 30.3108 35.7127 30.3213 33.0009 30.3213C30.289 30.3213 29.9675 30.3108 28.897 30.2621C27.9067 30.2164 27.3693 30.051 27.011 29.9119C26.5371 29.7278 26.1985 29.5078 25.843 29.1523C25.4875 28.7969 25.2675 28.4592 25.083 27.985C24.944 27.6274 24.7783 27.0899 24.7332 26.0997C24.6846 25.029 24.6748 24.7075 24.6748 21.9952C24.6748 19.283 24.6846 18.9632 24.7332 17.8925C24.7785 16.9023 24.944 16.3648 25.083 16.0068C25.2671 15.5328 25.4875 15.1943 25.8431 14.8388C26.1987 14.4834 26.5371 14.2633 27.0111 14.0788C27.3691 13.9392 27.9067 13.7741 28.897 13.7286C29.8339 13.6863 30.197 13.6736 32.0898 13.6715V13.674ZM38.4223 15.3604C37.7495 15.3604 37.2036 15.9057 37.2036 16.5787C37.2036 17.2515 37.7495 17.7974 38.4223 17.7974C39.0952 17.7974 39.6411 17.2515 39.6411 16.5787C39.6411 15.9058 39.0952 15.3599 38.4223 15.3599V15.3604ZM33.0009 16.7844C30.1206 16.7844 27.7853 19.1197 27.7853 22.0001C27.7853 24.8805 30.1206 27.2147 33.0009 27.2147C35.8813 27.2147 38.2158 24.8805 38.2158 22.0001C38.2158 19.1198 35.8811 16.7844 33.0007 16.7844H33.0009ZM33.0009 18.6146C34.8706 18.6146 36.3864 20.1302 36.3864 22.0001C36.3864 23.8698 34.8706 25.3856 33.0009 25.3856C31.1313 25.3856 29.6155 23.8698 29.6155 22.0001C29.6155 20.1302 31.1311 18.6146 33.0009 18.6146Z" fill="white"/>
</g>
<defs>
<radialGradient id="paint0_radial_2783_5415" cx="0" cy="0" r="1" gradientUnits="userSpaceOnUse" gradientTransform="translate(26.9062 37.0025) rotate(-90) scale(25.7679 23.9662)">
<stop stop-color="#FFDD55"/>
<stop offset="0.1" stop-color="#FFDD55"/>
<stop offset="0.5" stop-color="#FF543E"/>
<stop offset="1" stop-color="#C837AB"/>
</radialGradient>
<radialGradient id="paint1_radial_2783_5415" cx="0" cy="0" r="1" gradientUnits="userSpaceOnUse" gradientTransform="translate(15.6449 10.8729) rotate(78.681) scale(11.5184 47.4792)">
<stop stop-color="#3771C8"/>
<stop offset="0.128" stop-color="#3771C8"/>
<stop offset="1" stop-color="#6600FF" stop-opacity="0"/>
</radialGradient>
<clipPath id="clip0_2783_5415">
<rect width="26" height="26" fill="white" transform="translate(20 9)"/>
</clipPath>
</defs>
</svg>
