<svg width="153" height="46" viewBox="0 0 153 46" fill="none" xmlns="http://www.w3.org/2000/svg">
<rect x="0.821657" y="1.63806" width="151.185" height="42.7261" rx="21.3631" stroke="black" stroke-width="1.64331"/>
<path fill-rule="evenodd" clip-rule="evenodd" d="M37.468 10.0234C35.5327 10.0234 33.2757 10.0689 31.0755 10.1307L30.9862 10.1339C28.747 10.1973 26.9401 10.2477 25.5166 10.4833C24.0331 10.7287 22.8014 11.1983 21.8167 12.2106C20.8287 13.2262 20.3981 14.4822 20.195 15.9853C20 17.4315 20 19.2644 20 21.5426V24.019C20 26.2939 20 28.1268 20.195 29.5746C20.3965 31.0777 20.8287 32.3337 21.8167 33.3493C22.8014 34.3633 24.0331 34.8313 25.5166 35.0766C26.9401 35.3122 28.747 35.3626 30.9862 35.426L31.0755 35.4292C33.2773 35.491 35.5327 35.5365 37.468 35.5365C39.4033 35.5365 41.6603 35.491 43.8605 35.4292L43.9499 35.426C46.189 35.3626 47.9959 35.3122 49.4194 35.0766C50.903 34.8313 52.1346 34.3617 53.1194 33.3493C54.1073 32.3337 54.5395 31.0777 54.741 29.5746C54.936 28.1284 54.936 26.2955 54.936 24.0173V21.541C54.936 19.2644 54.936 17.4315 54.741 15.9853C54.5395 14.4822 54.1073 13.2262 53.1194 12.2106C52.1346 11.1966 50.903 10.7287 49.4194 10.4833C47.9959 10.2477 46.189 10.1973 43.9482 10.1339L43.8605 10.1307C41.7303 10.066 39.5992 10.0303 37.468 10.0234ZM35.6351 27.0868C35.4498 27.1927 35.2399 27.248 35.0265 27.2473C34.8131 27.2466 34.6036 27.1898 34.419 27.0827C34.2344 26.9756 34.0812 26.8219 33.9746 26.637C33.8681 26.4521 33.812 26.2424 33.8119 26.029V19.5293C33.812 19.3159 33.8681 19.1062 33.9746 18.9213C34.0812 18.7364 34.2344 18.5827 34.419 18.4756C34.6036 18.3685 34.8131 18.3117 35.0265 18.311C35.2399 18.3103 35.4498 18.3656 35.6351 18.4715L41.3224 21.7213C41.5088 21.828 41.6637 21.9819 41.7714 22.1677C41.8791 22.3535 41.9359 22.5644 41.9359 22.7791C41.9359 22.9939 41.8791 23.2048 41.7714 23.3906C41.6637 23.5763 41.5088 23.7303 41.3224 23.837L35.6351 27.0868Z" fill="#FF0000"/>
<path d="M65.9874 22.0424C65.0251 22.0424 64.2202 21.8355 63.5727 21.4218C62.9342 20.9992 62.4801 20.4281 62.2103 19.7087L64.0719 18.6295C64.4496 19.5018 65.1106 19.938 66.0548 19.938C66.9092 19.938 67.3363 19.6817 67.3363 19.1691C67.3363 18.8903 67.1969 18.6745 66.9182 18.5216C66.6484 18.3597 66.1358 18.1753 65.3803 17.9685C64.9847 17.8606 64.6384 17.7392 64.3416 17.6043C64.0449 17.4694 63.7526 17.294 63.4648 17.0782C63.186 16.8534 62.9702 16.5746 62.8173 16.2418C62.6734 15.9091 62.6015 15.5269 62.6015 15.0952C62.6015 14.2229 62.9117 13.5259 63.5323 13.0043C64.1618 12.4827 64.9082 12.2219 65.7715 12.2219C66.545 12.2219 67.2284 12.4063 67.822 12.775C68.4155 13.1347 68.8832 13.6608 69.2249 14.3533L67.4038 15.419C67.2329 15.0592 67.0216 14.7895 66.7698 14.6096C66.518 14.4207 66.1852 14.3263 65.7715 14.3263C65.4478 14.3263 65.196 14.3983 65.0161 14.5421C64.8453 14.677 64.7598 14.8434 64.7598 15.0413C64.7598 15.2751 64.8677 15.4774 65.0836 15.6483C65.3084 15.8192 65.767 16.008 66.4595 16.2149C66.8372 16.3318 67.1295 16.4262 67.3363 16.4981C67.5432 16.5701 67.804 16.6915 68.1187 16.8624C68.4425 17.0242 68.6853 17.1996 68.8472 17.3885C69.018 17.5683 69.1664 17.8111 69.2923 18.1169C69.4272 18.4137 69.4947 18.7554 69.4947 19.1421C69.4947 20.0414 69.1709 20.7519 68.5234 21.2735C67.8759 21.7861 67.0306 22.0424 65.9874 22.0424ZM76.7651 21.1655C76.0816 21.7501 75.2093 22.0424 74.1481 22.0424C73.0869 22.0424 72.2146 21.7501 71.5311 21.1655C70.8476 20.581 70.5059 19.7941 70.5059 18.8049V12.4108H72.6642V18.616C72.6642 19.4973 73.1588 19.938 74.1481 19.938C75.1373 19.938 75.6319 19.4973 75.6319 18.616V12.4108H77.7903V18.8049C77.7903 19.7941 77.4485 20.581 76.7651 21.1655ZM85.2013 16.9568C85.9747 17.4514 86.3614 18.1619 86.3614 19.0881C86.3614 19.9065 86.0692 20.572 85.4846 21.0846C84.9001 21.5972 84.1761 21.8535 83.3128 21.8535H79.3468V12.4108H83.043C83.8883 12.4108 84.5943 12.6626 85.1609 13.1662C85.7364 13.6608 86.0242 14.3083 86.0242 15.1087C86.0242 15.8641 85.7499 16.4802 85.2013 16.9568ZM83.043 14.4342H81.5052V16.1069H83.043C83.2858 16.1069 83.4837 16.0305 83.6365 15.8776C83.7894 15.7157 83.8659 15.5134 83.8659 15.2706C83.8659 15.0278 83.7894 14.8299 83.6365 14.677C83.4837 14.5152 83.2858 14.4342 83.043 14.4342ZM83.3128 19.8301C83.5826 19.8301 83.7984 19.7491 83.9603 19.5873C84.1222 19.4164 84.2031 19.1961 84.2031 18.9263C84.2031 18.6565 84.1222 18.4406 83.9603 18.2788C83.7984 18.1079 83.5826 18.0225 83.3128 18.0225H81.5052V19.8301H83.3128ZM90.6086 22.0424C89.6463 22.0424 88.8414 21.8355 88.1939 21.4218C87.5554 20.9992 87.1013 20.4281 86.8315 19.7087L88.693 18.6295C89.0707 19.5018 89.7317 19.938 90.676 19.938C91.5304 19.938 91.9575 19.6817 91.9575 19.1691C91.9575 18.8903 91.8181 18.6745 91.5393 18.5216C91.2696 18.3597 90.7569 18.1753 90.0015 17.9685C89.6058 17.8606 89.2596 17.7392 88.9628 17.6043C88.6661 17.4694 88.3738 17.294 88.086 17.0782C87.8072 16.8534 87.5914 16.5746 87.4385 16.2418C87.2946 15.9091 87.2227 15.5269 87.2227 15.0952C87.2227 14.2229 87.5329 13.5259 88.1535 13.0043C88.783 12.4827 89.5294 12.2219 90.3927 12.2219C91.1661 12.2219 91.8496 12.4063 92.4432 12.775C93.0367 13.1347 93.5043 13.6608 93.8461 14.3533L92.025 15.419C91.8541 15.0592 91.6428 14.7895 91.391 14.6096C91.1392 14.4207 90.8064 14.3263 90.3927 14.3263C90.069 14.3263 89.8172 14.3983 89.6373 14.5421C89.4664 14.677 89.381 14.8434 89.381 15.0413C89.381 15.2751 89.4889 15.4774 89.7048 15.6483C89.9296 15.8192 90.3882 16.008 91.0807 16.2149C91.4584 16.3318 91.7507 16.4262 91.9575 16.4981C92.1644 16.5701 92.4252 16.6915 92.7399 16.8624C93.0637 17.0242 93.3065 17.1996 93.4684 17.3885C93.6392 17.5683 93.7876 17.8111 93.9135 18.1169C94.0484 18.4137 94.1159 18.7554 94.1159 19.1421C94.1159 20.0414 93.7921 20.7519 93.1446 21.2735C92.4971 21.7861 91.6518 22.0424 90.6086 22.0424ZM99.6342 22.0424C98.2223 22.0424 97.0487 21.5747 96.1134 20.6395C95.1871 19.6952 94.7239 18.5261 94.7239 17.1321C94.7239 15.7382 95.1871 14.5736 96.1134 13.6383C97.0487 12.6941 98.2223 12.2219 99.6342 12.2219C100.48 12.2219 101.262 12.4198 101.981 12.8155C102.701 13.2022 103.267 13.7328 103.681 14.4072L101.819 15.4864C101.613 15.1177 101.316 14.8344 100.929 14.6366C100.542 14.4297 100.111 14.3263 99.6342 14.3263C98.7978 14.3263 98.1278 14.5826 97.6242 15.0952C97.1296 15.6078 96.8823 16.2868 96.8823 17.1321C96.8823 17.9775 97.1296 18.6565 97.6242 19.1691C98.1278 19.6817 98.7978 19.938 99.6342 19.938C100.111 19.938 100.542 19.8346 100.929 19.6277C101.325 19.4209 101.622 19.1376 101.819 18.7779L103.681 19.8571C103.276 20.5315 102.714 21.0666 101.995 21.4623C101.275 21.849 100.489 22.0424 99.6342 22.0424ZM109.657 21.8535L107.876 18.7509H106.851V21.8535H104.693V12.4108H108.47C109.369 12.4108 110.133 12.7255 110.763 13.3551C111.392 13.9846 111.707 14.749 111.707 15.6483C111.707 16.2238 111.545 16.7589 111.222 17.2536C110.907 17.7392 110.489 18.1169 109.967 18.3867L111.977 21.8535H109.657ZM106.851 14.4342V16.8624H108.47C108.766 16.8624 109.018 16.7454 109.225 16.5116C109.441 16.2778 109.549 15.99 109.549 15.6483C109.549 15.3066 109.441 15.0188 109.225 14.785C109.018 14.5511 108.766 14.4342 108.47 14.4342H106.851ZM112.992 12.4108H115.15V21.8535H112.992V12.4108ZM122.627 16.9568C123.401 17.4514 123.787 18.1619 123.787 19.0881C123.787 19.9065 123.495 20.572 122.91 21.0846C122.326 21.5972 121.602 21.8535 120.739 21.8535H116.773V12.4108H120.469C121.314 12.4108 122.02 12.6626 122.587 13.1662C123.162 13.6608 123.45 14.3083 123.45 15.1087C123.45 15.8641 123.176 16.4802 122.627 16.9568ZM120.469 14.4342H118.931V16.1069H120.469C120.712 16.1069 120.909 16.0305 121.062 15.8776C121.215 15.7157 121.292 15.5134 121.292 15.2706C121.292 15.0278 121.215 14.8299 121.062 14.677C120.909 14.5152 120.712 14.4342 120.469 14.4342ZM120.739 19.8301C121.008 19.8301 121.224 19.7491 121.386 19.5873C121.548 19.4164 121.629 19.1961 121.629 18.9263C121.629 18.6565 121.548 18.4406 121.386 18.2788C121.224 18.1079 121.008 18.0225 120.739 18.0225H118.931V19.8301H120.739ZM127.019 19.7761H130.797V21.8535H124.861V12.4108H130.729V14.4882H127.019V16.053H130.392V18.1034H127.019V19.7761Z" fill="black"/>
<path d="M66.5981 26.6943V27.4197H64.8917V32.4648H64.1333V27.4197H62.4351V26.6943H66.5981ZM71.8246 31.6982C71.2475 32.2807 70.5413 32.572 69.706 32.572C68.8706 32.572 68.1644 32.2807 67.5874 31.6982C67.0103 31.1156 66.7218 30.4094 66.7218 29.5796C66.7218 28.7442 67.0103 28.038 67.5874 27.4609C68.1644 26.8784 68.8706 26.5871 69.706 26.5871C70.5413 26.5871 71.2475 26.8784 71.8246 27.4609C72.4071 28.038 72.6984 28.7442 72.6984 29.5796C72.6984 30.4094 72.4071 31.1156 71.8246 31.6982ZM68.115 31.1788C68.5436 31.6075 69.074 31.8218 69.706 31.8218C70.338 31.8218 70.8656 31.6075 71.2888 31.1788C71.7174 30.7447 71.9318 30.2116 71.9318 29.5796C71.9318 28.9421 71.7174 28.409 71.2888 27.9803C70.8656 27.5461 70.338 27.329 69.706 27.329C69.074 27.329 68.5436 27.5461 68.115 27.9803C67.6918 28.409 67.4802 28.9421 67.4802 29.5796C67.4802 30.2116 67.6918 30.7447 68.115 31.1788ZM80.4788 31.6982C79.9018 32.2807 79.1956 32.572 78.3602 32.572C77.5248 32.572 76.8186 32.2807 76.2416 31.6982C75.6645 31.1156 75.376 30.4094 75.376 29.5796C75.376 28.7442 75.6645 28.038 76.2416 27.4609C76.8186 26.8784 77.5248 26.5871 78.3602 26.5871C79.1956 26.5871 79.9018 26.8784 80.4788 27.4609C81.0614 28.038 81.3526 28.7442 81.3526 29.5796C81.3526 30.4094 81.0614 31.1156 80.4788 31.6982ZM76.7692 31.1788C77.1978 31.6075 77.7282 31.8218 78.3602 31.8218C78.9922 31.8218 79.5198 31.6075 79.943 31.1788C80.3717 30.7447 80.586 30.2116 80.586 29.5796C80.586 28.9421 80.3717 28.409 79.943 27.9803C79.5198 27.5461 78.9922 27.329 78.3602 27.329C77.7282 27.329 77.1978 27.5461 76.7692 27.9803C76.346 28.409 76.1344 28.9421 76.1344 29.5796C76.1344 30.2116 76.346 30.7447 76.7692 31.1788ZM85.886 32.0197C85.4848 32.3879 84.9655 32.572 84.328 32.572C83.6905 32.572 83.1684 32.3879 82.7617 32.0197C82.3605 31.646 82.1599 31.1486 82.1599 30.5276V26.6943H82.9265V30.4946C82.9265 30.9013 83.0475 31.2255 83.2893 31.4674C83.5311 31.7037 83.8773 31.8218 84.328 31.8218C84.7786 31.8218 85.1249 31.7037 85.3667 31.4674C85.6085 31.2255 85.7294 30.9013 85.7294 30.4946V26.6943H86.4878V30.5276C86.4878 31.1486 86.2872 31.646 85.886 32.0197ZM91.0812 32.4648L89.7869 30.2555H88.4267V32.4648H87.6601V26.6943H89.9683C90.4629 26.6943 90.8861 26.8702 91.2378 27.2219C91.5896 27.5681 91.7654 27.9885 91.7654 28.4832C91.7654 28.8569 91.6528 29.1976 91.4274 29.5054C91.2076 29.8131 90.9218 30.0302 90.5701 30.1566L91.9303 32.4648H91.0812ZM88.4267 27.4115V29.5631H89.9683C90.2541 29.5631 90.4959 29.4587 90.6937 29.2498C90.8971 29.0355 90.9988 28.7799 90.9988 28.4832C90.9988 28.1864 90.8971 27.9336 90.6937 27.7247C90.4959 27.5159 90.2541 27.4115 89.9683 27.4115H88.4267ZM97.4727 32.572C96.5989 32.572 95.8762 32.2835 95.3046 31.7064C94.7386 31.1294 94.4556 30.4204 94.4556 29.5796C94.4556 28.7387 94.7386 28.0298 95.3046 27.4527C95.8762 26.8756 96.5989 26.5871 97.4727 26.5871C98.0003 26.5871 98.4839 26.7135 98.9236 26.9663C99.3688 27.2191 99.715 27.5599 99.9623 27.9885L99.2946 28.376C99.1297 28.0572 98.8824 27.8044 98.5526 27.6176C98.2284 27.4252 97.8684 27.329 97.4727 27.329C96.8077 27.329 96.2637 27.5434 95.8405 27.9721C95.4228 28.4007 95.214 28.9366 95.214 29.5796C95.214 30.2171 95.4228 30.7502 95.8405 31.1788C96.2637 31.6075 96.8077 31.8218 97.4727 31.8218C97.8684 31.8218 98.2284 31.7284 98.5526 31.5416C98.8824 31.3492 99.1297 31.0964 99.2946 30.7831L99.9623 31.1623C99.7205 31.591 99.377 31.9345 98.9319 32.1928C98.4867 32.4456 98.0003 32.572 97.4727 32.572ZM104.4 26.6943H105.159V32.4648H104.4V29.8681H101.597V32.4648H100.831V26.6943H101.597V29.1427H104.4V26.6943ZM110.194 32.4648L109.724 31.1706H107.127L106.657 32.4648H105.841L107.993 26.6943H108.858L111.01 32.4648H110.194ZM107.391 30.4534H109.46L108.421 27.6093L107.391 30.4534ZM115.277 26.6943H116.043V32.4648H115.425L112.457 28.1534V32.4648H111.691V26.6943H112.309L115.277 30.9975V26.6943ZM120.864 26.6943H121.63V32.4648H121.012L118.044 28.1534V32.4648H117.278V26.6943H117.896L120.864 30.9975V26.6943ZM123.631 31.7394H126.311V32.4648H122.865V26.6943H126.269V27.4197H123.631V29.1921H126.063V29.9093H123.631V31.7394ZM128.003 31.7394H130.492V32.4648H127.236V26.6943H128.003V31.7394Z" fill="black"/>
</svg>
